<?xml version="1.0" standalone="no"?>
<!DOCTYPE svg PUBLIC "-//W3C//DTD SVG 20010904//EN"
 "http://www.w3.org/TR/2001/REC-SVG-20010904/DTD/svg10.dtd">
<svg version="1.0" xmlns="http://www.w3.org/2000/svg"
 width="288.000000pt" height="288.000000pt" viewBox="0 0 288.000000 288.000000"
 preserveAspectRatio="xMidYMid meet">
<metadata>
Created by potrace 1.14, written by Peter Selinger 2001-2017
</metadata>
<g transform="translate(0.000000,288.000000) scale(0.100000,-0.100000)"
fill="#000000" stroke="none">
<path d="M955 2210 c-98 -16 -146 -32 -239 -80 -175 -88 -275 -184 -348 -330
-43 -84 -43 -85 -46 -210 -2 -70 1 -140 7 -160 25 -85 128 -163 281 -214 103
-34 207 -82 238 -110 31 -28 54 -84 47 -116 -19 -84 -183 -170 -324 -170 -90
0 -133 29 -146 98 -13 68 -65 44 -65 -30 0 -93 55 -148 147 -148 54 0 143 15
178 30 97 40 147 71 195 119 69 69 90 113 90 183 0 100 -53 142 -265 214 -174
58 -224 89 -273 173 -24 41 -27 56 -27 136 0 111 20 181 77 265 53 80 103 130
170 173 179 115 399 156 509 95 132 -73 92 -318 -63 -382 -21 -9 -46 -16 -57
-16 -20 0 -35 -25 -25 -41 9 -15 67 -10 109 11 51 24 62 34 112 97 56 71 76
136 71 228 -3 64 -7 79 -34 112 -44 55 -90 75 -187 78 -45 2 -104 0 -132 -5z"/>
<path d="M2000 2193 c-99 -9 -214 -40 -308 -84 -85 -39 -176 -129 -192 -189
-24 -90 12 -191 100 -279 53 -53 85 -70 102 -53 8 8 -5 29 -42 69 -64 70 -80
105 -80 176 0 179 249 309 562 294 99 -4 112 -7 190 -45 143 -69 223 -168 234
-287 5 -52 -13 -99 -61 -156 -45 -54 -139 -111 -230 -139 -22 -7 -51 -16 -65
-21 -14 -4 -45 -11 -70 -14 -25 -3 -57 -8 -72 -11 -36 -7 -36 1 1 125 41 138
113 475 105 495 -8 21 -51 21 -63 -1 -8 -16 -61 -224 -75 -293 -3 -14 -22 -94
-42 -177 -31 -125 -41 -153 -55 -153 -26 0 -33 -18 -15 -44 14 -22 11 -35 -39
-191 -96 -296 -195 -465 -282 -481 -77 -15 -150 24 -200 108 -40 66 -93 223
-93 275 0 22 -6 48 -14 59 -14 19 -15 19 -23 -1 -17 -41 -7 -198 17 -266 36
-102 118 -211 187 -247 86 -44 186 -4 267 107 74 101 174 321 244 534 14 43
30 80 36 82 6 1 54 8 106 15 157 20 293 73 374 144 200 179 192 426 -19 561
-77 49 -159 74 -280 85 -108 10 -134 10 -205 3z"/>
</g>
</svg>
